<mxfile host="app.diagrams.net" modified="2022-03-08T17:54:40.680Z" agent="5.0 (Windows NT 10.0; Win64; x64) AppleWebKit/537.36 (KHTML, like Gecko) Chrome/98.0.4758.102 Safari/537.36" etag="DOiHSTmUMprkOZpedwFM" version="16.6.6" type="github">
  <diagram id="voKFSKnlHtLaMkNG1QMZ" name="Page-1">
    <mxGraphModel dx="635" dy="720" grid="1" gridSize="10" guides="1" tooltips="1" connect="1" arrows="1" fold="1" page="1" pageScale="1" pageWidth="3300" pageHeight="4681" math="0" shadow="0">
      <root>
        <mxCell id="0" />
        <mxCell id="1" parent="0" />
        <mxCell id="GPQAzj5ePq1C3IQFevj--2" value="" style="endArrow=oval;html=1;rounded=0;startArrow=oval;startFill=1;endFill=1;" edge="1" parent="1">
          <mxGeometry width="50" height="50" relative="1" as="geometry">
            <mxPoint x="200" y="160" as="sourcePoint" />
            <mxPoint x="360" y="160" as="targetPoint" />
          </mxGeometry>
        </mxCell>
        <mxCell id="GPQAzj5ePq1C3IQFevj--3" value="" style="endArrow=none;html=1;rounded=0;" edge="1" parent="1">
          <mxGeometry width="50" height="50" relative="1" as="geometry">
            <mxPoint x="200" y="320" as="sourcePoint" />
            <mxPoint x="200" y="160" as="targetPoint" />
          </mxGeometry>
        </mxCell>
        <mxCell id="GPQAzj5ePq1C3IQFevj--4" value="" style="endArrow=none;html=1;rounded=0;" edge="1" parent="1">
          <mxGeometry width="50" height="50" relative="1" as="geometry">
            <mxPoint x="360" y="320" as="sourcePoint" />
            <mxPoint x="360" y="160" as="targetPoint" />
          </mxGeometry>
        </mxCell>
        <mxCell id="GPQAzj5ePq1C3IQFevj--5" value="" style="endArrow=oval;html=1;rounded=0;startArrow=oval;startFill=1;endFill=1;" edge="1" parent="1">
          <mxGeometry width="50" height="50" relative="1" as="geometry">
            <mxPoint x="200" y="320" as="sourcePoint" />
            <mxPoint x="360" y="320" as="targetPoint" />
          </mxGeometry>
        </mxCell>
        <mxCell id="GPQAzj5ePq1C3IQFevj--6" value="" style="endArrow=none;html=1;rounded=0;" edge="1" parent="1">
          <mxGeometry width="50" height="50" relative="1" as="geometry">
            <mxPoint x="240" y="200" as="sourcePoint" />
            <mxPoint x="320" y="200" as="targetPoint" />
          </mxGeometry>
        </mxCell>
        <mxCell id="GPQAzj5ePq1C3IQFevj--7" value="" style="endArrow=none;html=1;rounded=0;" edge="1" parent="1">
          <mxGeometry width="50" height="50" relative="1" as="geometry">
            <mxPoint x="240" y="280" as="sourcePoint" />
            <mxPoint x="320" y="280" as="targetPoint" />
          </mxGeometry>
        </mxCell>
        <mxCell id="GPQAzj5ePq1C3IQFevj--8" value="" style="endArrow=oval;html=1;rounded=0;startArrow=oval;startFill=1;endFill=1;" edge="1" parent="1">
          <mxGeometry width="50" height="50" relative="1" as="geometry">
            <mxPoint x="240" y="280" as="sourcePoint" />
            <mxPoint x="240" y="200" as="targetPoint" />
          </mxGeometry>
        </mxCell>
        <mxCell id="GPQAzj5ePq1C3IQFevj--9" value="" style="endArrow=oval;html=1;rounded=0;endFill=1;startArrow=oval;startFill=1;" edge="1" parent="1">
          <mxGeometry width="50" height="50" relative="1" as="geometry">
            <mxPoint x="320" y="280" as="sourcePoint" />
            <mxPoint x="320" y="200" as="targetPoint" />
          </mxGeometry>
        </mxCell>
        <mxCell id="GPQAzj5ePq1C3IQFevj--10" value="" style="endArrow=none;html=1;rounded=0;" edge="1" parent="1">
          <mxGeometry width="50" height="50" relative="1" as="geometry">
            <mxPoint x="320" y="200" as="sourcePoint" />
            <mxPoint x="360" y="160" as="targetPoint" />
          </mxGeometry>
        </mxCell>
        <mxCell id="GPQAzj5ePq1C3IQFevj--11" value="" style="endArrow=none;html=1;rounded=0;" edge="1" parent="1">
          <mxGeometry width="50" height="50" relative="1" as="geometry">
            <mxPoint x="200" y="320" as="sourcePoint" />
            <mxPoint x="240" y="280" as="targetPoint" />
          </mxGeometry>
        </mxCell>
        <mxCell id="GPQAzj5ePq1C3IQFevj--12" value="" style="endArrow=none;html=1;rounded=0;" edge="1" parent="1">
          <mxGeometry width="50" height="50" relative="1" as="geometry">
            <mxPoint x="240" y="200" as="sourcePoint" />
            <mxPoint x="200" y="160" as="targetPoint" />
          </mxGeometry>
        </mxCell>
        <mxCell id="GPQAzj5ePq1C3IQFevj--13" value="" style="endArrow=none;html=1;rounded=0;" edge="1" parent="1">
          <mxGeometry width="50" height="50" relative="1" as="geometry">
            <mxPoint x="360" y="320" as="sourcePoint" />
            <mxPoint x="320" y="280" as="targetPoint" />
          </mxGeometry>
        </mxCell>
        <mxCell id="GPQAzj5ePq1C3IQFevj--14" value="000" style="text;html=1;strokeColor=none;fillColor=none;align=center;verticalAlign=middle;whiteSpace=wrap;rounded=0;" vertex="1" parent="1">
          <mxGeometry x="180" y="320" width="60" height="30" as="geometry" />
        </mxCell>
        <mxCell id="GPQAzj5ePq1C3IQFevj--15" value="100" style="text;html=1;strokeColor=none;fillColor=none;align=center;verticalAlign=middle;whiteSpace=wrap;rounded=0;" vertex="1" parent="1">
          <mxGeometry x="340" y="320" width="60" height="30" as="geometry" />
        </mxCell>
        <mxCell id="GPQAzj5ePq1C3IQFevj--16" value="010" style="text;html=1;strokeColor=none;fillColor=none;align=center;verticalAlign=middle;whiteSpace=wrap;rounded=0;" vertex="1" parent="1">
          <mxGeometry x="180" y="130" width="60" height="30" as="geometry" />
        </mxCell>
        <mxCell id="GPQAzj5ePq1C3IQFevj--17" value="110" style="text;html=1;strokeColor=none;fillColor=none;align=center;verticalAlign=middle;whiteSpace=wrap;rounded=0;" vertex="1" parent="1">
          <mxGeometry x="340" y="130" width="60" height="30" as="geometry" />
        </mxCell>
        <mxCell id="GPQAzj5ePq1C3IQFevj--18" value="111" style="text;html=1;strokeColor=none;fillColor=none;align=center;verticalAlign=middle;whiteSpace=wrap;rounded=0;" vertex="1" parent="1">
          <mxGeometry x="300" y="180" width="60" height="30" as="geometry" />
        </mxCell>
        <mxCell id="GPQAzj5ePq1C3IQFevj--19" value="011" style="text;html=1;strokeColor=none;fillColor=none;align=center;verticalAlign=middle;whiteSpace=wrap;rounded=0;" vertex="1" parent="1">
          <mxGeometry x="220" y="180" width="60" height="30" as="geometry" />
        </mxCell>
        <mxCell id="GPQAzj5ePq1C3IQFevj--23" value="001" style="text;html=1;strokeColor=none;fillColor=none;align=center;verticalAlign=middle;whiteSpace=wrap;rounded=0;" vertex="1" parent="1">
          <mxGeometry x="220" y="260" width="60" height="30" as="geometry" />
        </mxCell>
        <mxCell id="GPQAzj5ePq1C3IQFevj--24" value="101" style="text;html=1;strokeColor=none;fillColor=none;align=center;verticalAlign=middle;whiteSpace=wrap;rounded=0;" vertex="1" parent="1">
          <mxGeometry x="300" y="260" width="60" height="30" as="geometry" />
        </mxCell>
        <mxCell id="GPQAzj5ePq1C3IQFevj--25" value="" style="endArrow=oval;html=1;rounded=0;startArrow=oval;startFill=1;endFill=1;strokeWidth=3;strokeColor=#FF2403;" edge="1" parent="1">
          <mxGeometry width="50" height="50" relative="1" as="geometry">
            <mxPoint x="400" y="160.00000000000006" as="sourcePoint" />
            <mxPoint x="560" y="160.00000000000006" as="targetPoint" />
          </mxGeometry>
        </mxCell>
        <mxCell id="GPQAzj5ePq1C3IQFevj--26" value="" style="endArrow=none;html=1;rounded=0;strokeWidth=1;" edge="1" parent="1">
          <mxGeometry width="50" height="50" relative="1" as="geometry">
            <mxPoint x="400" y="320" as="sourcePoint" />
            <mxPoint x="400" y="160.00000000000006" as="targetPoint" />
          </mxGeometry>
        </mxCell>
        <mxCell id="GPQAzj5ePq1C3IQFevj--27" value="" style="endArrow=none;html=1;rounded=0;strokeWidth=3;strokeColor=#FF2403;" edge="1" parent="1">
          <mxGeometry width="50" height="50" relative="1" as="geometry">
            <mxPoint x="560" y="320" as="sourcePoint" />
            <mxPoint x="560" y="160.00000000000006" as="targetPoint" />
          </mxGeometry>
        </mxCell>
        <mxCell id="GPQAzj5ePq1C3IQFevj--28" value="" style="endArrow=oval;html=1;rounded=0;startArrow=oval;startFill=1;endFill=1;strokeWidth=3;strokeColor=#FF2403;" edge="1" parent="1">
          <mxGeometry width="50" height="50" relative="1" as="geometry">
            <mxPoint x="400" y="320" as="sourcePoint" />
            <mxPoint x="560" y="320" as="targetPoint" />
          </mxGeometry>
        </mxCell>
        <mxCell id="GPQAzj5ePq1C3IQFevj--29" value="" style="endArrow=none;html=1;rounded=0;strokeWidth=3;strokeColor=#FF2403;" edge="1" parent="1">
          <mxGeometry width="50" height="50" relative="1" as="geometry">
            <mxPoint x="440" y="200.00000000000006" as="sourcePoint" />
            <mxPoint x="520" y="200.00000000000006" as="targetPoint" />
          </mxGeometry>
        </mxCell>
        <mxCell id="GPQAzj5ePq1C3IQFevj--30" value="" style="endArrow=none;html=1;rounded=0;strokeWidth=3;strokeColor=#FF2403;" edge="1" parent="1">
          <mxGeometry width="50" height="50" relative="1" as="geometry">
            <mxPoint x="440" y="280" as="sourcePoint" />
            <mxPoint x="520" y="280" as="targetPoint" />
          </mxGeometry>
        </mxCell>
        <mxCell id="GPQAzj5ePq1C3IQFevj--31" value="" style="endArrow=oval;html=1;rounded=0;startArrow=oval;startFill=1;endFill=1;strokeWidth=1;" edge="1" parent="1">
          <mxGeometry width="50" height="50" relative="1" as="geometry">
            <mxPoint x="440" y="280" as="sourcePoint" />
            <mxPoint x="440" y="200.00000000000006" as="targetPoint" />
          </mxGeometry>
        </mxCell>
        <mxCell id="GPQAzj5ePq1C3IQFevj--32" value="" style="endArrow=oval;html=1;rounded=0;endFill=1;startArrow=oval;startFill=1;strokeWidth=3;strokeColor=#FF2403;" edge="1" parent="1">
          <mxGeometry width="50" height="50" relative="1" as="geometry">
            <mxPoint x="520" y="280" as="sourcePoint" />
            <mxPoint x="520" y="200.00000000000006" as="targetPoint" />
          </mxGeometry>
        </mxCell>
        <mxCell id="GPQAzj5ePq1C3IQFevj--33" value="" style="endArrow=none;html=1;rounded=0;strokeWidth=0;" edge="1" parent="1">
          <mxGeometry width="50" height="50" relative="1" as="geometry">
            <mxPoint x="520" y="200.00000000000006" as="sourcePoint" />
            <mxPoint x="560" y="160.00000000000006" as="targetPoint" />
          </mxGeometry>
        </mxCell>
        <mxCell id="GPQAzj5ePq1C3IQFevj--34" value="" style="endArrow=none;html=1;rounded=0;strokeWidth=3;strokeColor=#FF2403;" edge="1" parent="1">
          <mxGeometry width="50" height="50" relative="1" as="geometry">
            <mxPoint x="400" y="320" as="sourcePoint" />
            <mxPoint x="440" y="280" as="targetPoint" />
          </mxGeometry>
        </mxCell>
        <mxCell id="GPQAzj5ePq1C3IQFevj--35" value="" style="endArrow=none;html=1;rounded=0;strokeWidth=3;strokeColor=#FF2403;" edge="1" parent="1">
          <mxGeometry width="50" height="50" relative="1" as="geometry">
            <mxPoint x="440" y="200.00000000000006" as="sourcePoint" />
            <mxPoint x="400" y="160.00000000000006" as="targetPoint" />
          </mxGeometry>
        </mxCell>
        <mxCell id="GPQAzj5ePq1C3IQFevj--36" value="" style="endArrow=none;html=1;rounded=0;strokeWidth=0;" edge="1" parent="1">
          <mxGeometry width="50" height="50" relative="1" as="geometry">
            <mxPoint x="560" y="320" as="sourcePoint" />
            <mxPoint x="520" y="280" as="targetPoint" />
          </mxGeometry>
        </mxCell>
        <mxCell id="GPQAzj5ePq1C3IQFevj--41" value="" style="endArrow=oval;html=1;rounded=0;startArrow=oval;startFill=1;endFill=1;strokeWidth=3;strokeColor=#FF2403;" edge="1" parent="1">
          <mxGeometry width="50" height="50" relative="1" as="geometry">
            <mxPoint x="400" y="360.00000000000006" as="sourcePoint" />
            <mxPoint x="560" y="360.00000000000006" as="targetPoint" />
          </mxGeometry>
        </mxCell>
        <mxCell id="GPQAzj5ePq1C3IQFevj--42" value="" style="endArrow=none;html=1;rounded=0;" edge="1" parent="1">
          <mxGeometry width="50" height="50" relative="1" as="geometry">
            <mxPoint x="400" y="520" as="sourcePoint" />
            <mxPoint x="400" y="360.00000000000006" as="targetPoint" />
          </mxGeometry>
        </mxCell>
        <mxCell id="GPQAzj5ePq1C3IQFevj--43" value="" style="endArrow=none;html=1;rounded=0;strokeWidth=1;strokeColor=#000000;" edge="1" parent="1">
          <mxGeometry width="50" height="50" relative="1" as="geometry">
            <mxPoint x="560" y="520" as="sourcePoint" />
            <mxPoint x="560" y="360.00000000000006" as="targetPoint" />
          </mxGeometry>
        </mxCell>
        <mxCell id="GPQAzj5ePq1C3IQFevj--44" value="" style="endArrow=oval;html=1;rounded=0;startArrow=oval;startFill=1;endFill=1;strokeWidth=3;strokeColor=#FF2403;" edge="1" parent="1">
          <mxGeometry width="50" height="50" relative="1" as="geometry">
            <mxPoint x="400" y="520" as="sourcePoint" />
            <mxPoint x="560" y="520" as="targetPoint" />
          </mxGeometry>
        </mxCell>
        <mxCell id="GPQAzj5ePq1C3IQFevj--45" value="" style="endArrow=none;html=1;rounded=0;strokeWidth=1;strokeColor=#000000;" edge="1" parent="1">
          <mxGeometry width="50" height="50" relative="1" as="geometry">
            <mxPoint x="440" y="400.00000000000006" as="sourcePoint" />
            <mxPoint x="520" y="400.00000000000006" as="targetPoint" />
          </mxGeometry>
        </mxCell>
        <mxCell id="GPQAzj5ePq1C3IQFevj--46" value="" style="endArrow=none;html=1;rounded=0;strokeWidth=1;strokeColor=#000000;" edge="1" parent="1">
          <mxGeometry width="50" height="50" relative="1" as="geometry">
            <mxPoint x="440" y="480" as="sourcePoint" />
            <mxPoint x="520" y="480" as="targetPoint" />
          </mxGeometry>
        </mxCell>
        <mxCell id="GPQAzj5ePq1C3IQFevj--47" value="" style="endArrow=oval;html=1;rounded=0;startArrow=oval;startFill=1;endFill=1;strokeWidth=3;strokeColor=#FF2403;" edge="1" parent="1">
          <mxGeometry width="50" height="50" relative="1" as="geometry">
            <mxPoint x="440" y="480" as="sourcePoint" />
            <mxPoint x="440" y="400.00000000000006" as="targetPoint" />
          </mxGeometry>
        </mxCell>
        <mxCell id="GPQAzj5ePq1C3IQFevj--48" value="" style="endArrow=oval;html=1;rounded=0;endFill=1;startArrow=oval;startFill=1;strokeWidth=3;strokeColor=#FF2403;" edge="1" parent="1">
          <mxGeometry width="50" height="50" relative="1" as="geometry">
            <mxPoint x="520" y="480" as="sourcePoint" />
            <mxPoint x="520" y="400.00000000000006" as="targetPoint" />
          </mxGeometry>
        </mxCell>
        <mxCell id="GPQAzj5ePq1C3IQFevj--49" value="" style="endArrow=none;html=1;rounded=0;strokeWidth=3;strokeColor=#FF2403;" edge="1" parent="1">
          <mxGeometry width="50" height="50" relative="1" as="geometry">
            <mxPoint x="520" y="400.00000000000006" as="sourcePoint" />
            <mxPoint x="560" y="360.00000000000006" as="targetPoint" />
          </mxGeometry>
        </mxCell>
        <mxCell id="GPQAzj5ePq1C3IQFevj--50" value="" style="endArrow=none;html=1;rounded=0;strokeWidth=3;strokeColor=#FF2403;" edge="1" parent="1">
          <mxGeometry width="50" height="50" relative="1" as="geometry">
            <mxPoint x="400" y="520" as="sourcePoint" />
            <mxPoint x="440" y="480" as="targetPoint" />
          </mxGeometry>
        </mxCell>
        <mxCell id="GPQAzj5ePq1C3IQFevj--51" value="" style="endArrow=none;html=1;rounded=0;strokeWidth=3;strokeColor=#FF2403;" edge="1" parent="1">
          <mxGeometry width="50" height="50" relative="1" as="geometry">
            <mxPoint x="440" y="400.00000000000006" as="sourcePoint" />
            <mxPoint x="400" y="360.00000000000006" as="targetPoint" />
          </mxGeometry>
        </mxCell>
        <mxCell id="GPQAzj5ePq1C3IQFevj--52" value="" style="endArrow=none;html=1;rounded=0;strokeWidth=3;strokeColor=#FF2403;" edge="1" parent="1">
          <mxGeometry width="50" height="50" relative="1" as="geometry">
            <mxPoint x="560" y="520" as="sourcePoint" />
            <mxPoint x="520" y="480" as="targetPoint" />
          </mxGeometry>
        </mxCell>
        <mxCell id="GPQAzj5ePq1C3IQFevj--81" value="" style="endArrow=oval;html=1;rounded=0;startArrow=oval;startFill=1;endFill=1;strokeWidth=1;strokeColor=#000000;" edge="1" parent="1">
          <mxGeometry width="50" height="50" relative="1" as="geometry">
            <mxPoint x="600" y="160" as="sourcePoint" />
            <mxPoint x="760" y="160" as="targetPoint" />
          </mxGeometry>
        </mxCell>
        <mxCell id="GPQAzj5ePq1C3IQFevj--82" value="" style="endArrow=none;html=1;rounded=0;strokeWidth=3;strokeColor=#FF2403;" edge="1" parent="1">
          <mxGeometry width="50" height="50" relative="1" as="geometry">
            <mxPoint x="600" y="320" as="sourcePoint" />
            <mxPoint x="600" y="160" as="targetPoint" />
          </mxGeometry>
        </mxCell>
        <mxCell id="GPQAzj5ePq1C3IQFevj--83" value="" style="endArrow=none;html=1;rounded=0;strokeWidth=3;strokeColor=#FF2403;" edge="1" parent="1">
          <mxGeometry width="50" height="50" relative="1" as="geometry">
            <mxPoint x="760" y="320" as="sourcePoint" />
            <mxPoint x="760" y="160" as="targetPoint" />
          </mxGeometry>
        </mxCell>
        <mxCell id="GPQAzj5ePq1C3IQFevj--84" value="" style="endArrow=oval;html=1;rounded=0;startArrow=oval;startFill=1;endFill=1;strokeWidth=3;strokeColor=#FF2403;" edge="1" parent="1">
          <mxGeometry width="50" height="50" relative="1" as="geometry">
            <mxPoint x="600" y="320" as="sourcePoint" />
            <mxPoint x="760" y="320" as="targetPoint" />
          </mxGeometry>
        </mxCell>
        <mxCell id="GPQAzj5ePq1C3IQFevj--85" value="" style="endArrow=none;html=1;rounded=0;strokeWidth=1;strokeColor=#000000;" edge="1" parent="1">
          <mxGeometry width="50" height="50" relative="1" as="geometry">
            <mxPoint x="640" y="200" as="sourcePoint" />
            <mxPoint x="720" y="200" as="targetPoint" />
          </mxGeometry>
        </mxCell>
        <mxCell id="GPQAzj5ePq1C3IQFevj--86" value="" style="endArrow=none;html=1;rounded=0;strokeWidth=3;strokeColor=#FF2403;" edge="1" parent="1">
          <mxGeometry width="50" height="50" relative="1" as="geometry">
            <mxPoint x="640" y="280" as="sourcePoint" />
            <mxPoint x="720" y="280" as="targetPoint" />
          </mxGeometry>
        </mxCell>
        <mxCell id="GPQAzj5ePq1C3IQFevj--87" value="" style="endArrow=oval;html=1;rounded=0;startArrow=oval;startFill=1;endFill=1;strokeWidth=3;strokeColor=#FF2403;" edge="1" parent="1">
          <mxGeometry width="50" height="50" relative="1" as="geometry">
            <mxPoint x="640" y="280" as="sourcePoint" />
            <mxPoint x="640" y="200" as="targetPoint" />
          </mxGeometry>
        </mxCell>
        <mxCell id="GPQAzj5ePq1C3IQFevj--88" value="" style="endArrow=oval;html=1;rounded=0;endFill=1;startArrow=oval;startFill=1;strokeWidth=3;strokeColor=#FF2403;" edge="1" parent="1">
          <mxGeometry width="50" height="50" relative="1" as="geometry">
            <mxPoint x="720" y="280" as="sourcePoint" />
            <mxPoint x="720" y="200" as="targetPoint" />
          </mxGeometry>
        </mxCell>
        <mxCell id="GPQAzj5ePq1C3IQFevj--89" value="" style="endArrow=none;html=1;rounded=0;strokeWidth=3;strokeColor=#FF2403;" edge="1" parent="1">
          <mxGeometry width="50" height="50" relative="1" as="geometry">
            <mxPoint x="720" y="200" as="sourcePoint" />
            <mxPoint x="760" y="160" as="targetPoint" />
          </mxGeometry>
        </mxCell>
        <mxCell id="GPQAzj5ePq1C3IQFevj--90" value="" style="endArrow=none;html=1;rounded=0;strokeWidth=1;strokeColor=#000000;" edge="1" parent="1">
          <mxGeometry width="50" height="50" relative="1" as="geometry">
            <mxPoint x="600" y="320" as="sourcePoint" />
            <mxPoint x="640" y="280" as="targetPoint" />
          </mxGeometry>
        </mxCell>
        <mxCell id="GPQAzj5ePq1C3IQFevj--91" value="" style="endArrow=none;html=1;rounded=0;strokeWidth=3;strokeColor=#FF2403;" edge="1" parent="1">
          <mxGeometry width="50" height="50" relative="1" as="geometry">
            <mxPoint x="640" y="200" as="sourcePoint" />
            <mxPoint x="600" y="160" as="targetPoint" />
          </mxGeometry>
        </mxCell>
        <mxCell id="GPQAzj5ePq1C3IQFevj--92" value="" style="endArrow=none;html=1;rounded=0;" edge="1" parent="1">
          <mxGeometry width="50" height="50" relative="1" as="geometry">
            <mxPoint x="760" y="320" as="sourcePoint" />
            <mxPoint x="720" y="280" as="targetPoint" />
          </mxGeometry>
        </mxCell>
        <mxCell id="GPQAzj5ePq1C3IQFevj--93" value="" style="endArrow=oval;html=1;rounded=0;startArrow=oval;startFill=1;endFill=1;strokeWidth=3;strokeColor=#FF2403;" edge="1" parent="1">
          <mxGeometry width="50" height="50" relative="1" as="geometry">
            <mxPoint x="800" y="160" as="sourcePoint" />
            <mxPoint x="960" y="160" as="targetPoint" />
          </mxGeometry>
        </mxCell>
        <mxCell id="GPQAzj5ePq1C3IQFevj--94" value="" style="endArrow=none;html=1;rounded=0;strokeWidth=3;strokeColor=#FF2403;" edge="1" parent="1">
          <mxGeometry width="50" height="50" relative="1" as="geometry">
            <mxPoint x="800" y="320" as="sourcePoint" />
            <mxPoint x="800" y="160" as="targetPoint" />
          </mxGeometry>
        </mxCell>
        <mxCell id="GPQAzj5ePq1C3IQFevj--95" value="" style="endArrow=none;html=1;rounded=0;strokeWidth=1;strokeColor=#000000;" edge="1" parent="1">
          <mxGeometry width="50" height="50" relative="1" as="geometry">
            <mxPoint x="960" y="320" as="sourcePoint" />
            <mxPoint x="960" y="160" as="targetPoint" />
          </mxGeometry>
        </mxCell>
        <mxCell id="GPQAzj5ePq1C3IQFevj--96" value="" style="endArrow=oval;html=1;rounded=0;startArrow=oval;startFill=1;endFill=1;strokeWidth=3;strokeColor=#FF2403;" edge="1" parent="1">
          <mxGeometry width="50" height="50" relative="1" as="geometry">
            <mxPoint x="800" y="320" as="sourcePoint" />
            <mxPoint x="960" y="320" as="targetPoint" />
          </mxGeometry>
        </mxCell>
        <mxCell id="GPQAzj5ePq1C3IQFevj--97" value="" style="endArrow=none;html=1;rounded=0;strokeWidth=3;strokeColor=#FF2403;" edge="1" parent="1">
          <mxGeometry width="50" height="50" relative="1" as="geometry">
            <mxPoint x="840" y="200" as="sourcePoint" />
            <mxPoint x="920" y="200" as="targetPoint" />
          </mxGeometry>
        </mxCell>
        <mxCell id="GPQAzj5ePq1C3IQFevj--98" value="" style="endArrow=none;html=1;rounded=0;strokeWidth=3;strokeColor=#FF2403;" edge="1" parent="1">
          <mxGeometry width="50" height="50" relative="1" as="geometry">
            <mxPoint x="840" y="280" as="sourcePoint" />
            <mxPoint x="920" y="280" as="targetPoint" />
          </mxGeometry>
        </mxCell>
        <mxCell id="GPQAzj5ePq1C3IQFevj--99" value="" style="endArrow=oval;html=1;rounded=0;startArrow=oval;startFill=1;endFill=1;strokeWidth=3;strokeColor=#FF2403;" edge="1" parent="1">
          <mxGeometry width="50" height="50" relative="1" as="geometry">
            <mxPoint x="840" y="280" as="sourcePoint" />
            <mxPoint x="840" y="200" as="targetPoint" />
          </mxGeometry>
        </mxCell>
        <mxCell id="GPQAzj5ePq1C3IQFevj--100" value="" style="endArrow=oval;html=1;rounded=0;endFill=1;startArrow=oval;startFill=1;strokeWidth=1;strokeColor=#000000;" edge="1" parent="1">
          <mxGeometry width="50" height="50" relative="1" as="geometry">
            <mxPoint x="920" y="280" as="sourcePoint" />
            <mxPoint x="920" y="200" as="targetPoint" />
          </mxGeometry>
        </mxCell>
        <mxCell id="GPQAzj5ePq1C3IQFevj--101" value="" style="endArrow=none;html=1;rounded=0;strokeWidth=3;strokeColor=#FF2403;" edge="1" parent="1">
          <mxGeometry width="50" height="50" relative="1" as="geometry">
            <mxPoint x="920" y="200" as="sourcePoint" />
            <mxPoint x="960" y="160" as="targetPoint" />
          </mxGeometry>
        </mxCell>
        <mxCell id="GPQAzj5ePq1C3IQFevj--102" value="" style="endArrow=none;html=1;rounded=0;strokeWidth=1;strokeColor=#000000;" edge="1" parent="1">
          <mxGeometry width="50" height="50" relative="1" as="geometry">
            <mxPoint x="800" y="320" as="sourcePoint" />
            <mxPoint x="840" y="280" as="targetPoint" />
          </mxGeometry>
        </mxCell>
        <mxCell id="GPQAzj5ePq1C3IQFevj--103" value="" style="endArrow=none;html=1;rounded=0;strokeWidth=1;strokeColor=#000000;" edge="1" parent="1">
          <mxGeometry width="50" height="50" relative="1" as="geometry">
            <mxPoint x="840" y="200" as="sourcePoint" />
            <mxPoint x="800" y="160" as="targetPoint" />
          </mxGeometry>
        </mxCell>
        <mxCell id="GPQAzj5ePq1C3IQFevj--104" value="" style="endArrow=none;html=1;rounded=0;strokeWidth=3;strokeColor=#FF2403;" edge="1" parent="1">
          <mxGeometry width="50" height="50" relative="1" as="geometry">
            <mxPoint x="960" y="320" as="sourcePoint" />
            <mxPoint x="920" y="280" as="targetPoint" />
          </mxGeometry>
        </mxCell>
        <mxCell id="GPQAzj5ePq1C3IQFevj--105" value="" style="endArrow=oval;html=1;rounded=0;startArrow=oval;startFill=1;endFill=1;strokeWidth=3;strokeColor=#FF2403;" edge="1" parent="1">
          <mxGeometry width="50" height="50" relative="1" as="geometry">
            <mxPoint x="199" y="360" as="sourcePoint" />
            <mxPoint x="359" y="360" as="targetPoint" />
          </mxGeometry>
        </mxCell>
        <mxCell id="GPQAzj5ePq1C3IQFevj--106" value="" style="endArrow=none;html=1;rounded=0;strokeWidth=3;strokeColor=#FF2403;" edge="1" parent="1">
          <mxGeometry width="50" height="50" relative="1" as="geometry">
            <mxPoint x="199" y="520" as="sourcePoint" />
            <mxPoint x="199" y="360" as="targetPoint" />
          </mxGeometry>
        </mxCell>
        <mxCell id="GPQAzj5ePq1C3IQFevj--107" value="" style="endArrow=none;html=1;rounded=0;strokeWidth=3;strokeColor=#FF2403;" edge="1" parent="1">
          <mxGeometry width="50" height="50" relative="1" as="geometry">
            <mxPoint x="359" y="520" as="sourcePoint" />
            <mxPoint x="359" y="360" as="targetPoint" />
          </mxGeometry>
        </mxCell>
        <mxCell id="GPQAzj5ePq1C3IQFevj--108" value="" style="endArrow=oval;html=1;rounded=0;startArrow=oval;startFill=1;endFill=1;strokeWidth=1;strokeColor=#000000;" edge="1" parent="1">
          <mxGeometry width="50" height="50" relative="1" as="geometry">
            <mxPoint x="199" y="520" as="sourcePoint" />
            <mxPoint x="359" y="520" as="targetPoint" />
          </mxGeometry>
        </mxCell>
        <mxCell id="GPQAzj5ePq1C3IQFevj--109" value="" style="endArrow=none;html=1;rounded=0;strokeWidth=3;strokeColor=#FF2403;" edge="1" parent="1">
          <mxGeometry width="50" height="50" relative="1" as="geometry">
            <mxPoint x="239" y="400" as="sourcePoint" />
            <mxPoint x="319" y="400" as="targetPoint" />
          </mxGeometry>
        </mxCell>
        <mxCell id="GPQAzj5ePq1C3IQFevj--110" value="" style="endArrow=none;html=1;rounded=0;strokeWidth=1;strokeColor=#000000;" edge="1" parent="1">
          <mxGeometry width="50" height="50" relative="1" as="geometry">
            <mxPoint x="239" y="480" as="sourcePoint" />
            <mxPoint x="319" y="480" as="targetPoint" />
          </mxGeometry>
        </mxCell>
        <mxCell id="GPQAzj5ePq1C3IQFevj--111" value="" style="endArrow=oval;html=1;rounded=0;startArrow=oval;startFill=1;endFill=1;strokeWidth=3;strokeColor=#FF2403;" edge="1" parent="1">
          <mxGeometry width="50" height="50" relative="1" as="geometry">
            <mxPoint x="239" y="480" as="sourcePoint" />
            <mxPoint x="239" y="400" as="targetPoint" />
          </mxGeometry>
        </mxCell>
        <mxCell id="GPQAzj5ePq1C3IQFevj--112" value="" style="endArrow=oval;html=1;rounded=0;endFill=1;startArrow=oval;startFill=1;strokeWidth=3;strokeColor=#FF2403;" edge="1" parent="1">
          <mxGeometry width="50" height="50" relative="1" as="geometry">
            <mxPoint x="319" y="480" as="sourcePoint" />
            <mxPoint x="319" y="400" as="targetPoint" />
          </mxGeometry>
        </mxCell>
        <mxCell id="GPQAzj5ePq1C3IQFevj--113" value="" style="endArrow=none;html=1;rounded=0;strokeWidth=1;strokeColor=#000000;" edge="1" parent="1">
          <mxGeometry width="50" height="50" relative="1" as="geometry">
            <mxPoint x="319" y="400" as="sourcePoint" />
            <mxPoint x="359" y="360" as="targetPoint" />
          </mxGeometry>
        </mxCell>
        <mxCell id="GPQAzj5ePq1C3IQFevj--114" value="" style="endArrow=none;html=1;rounded=0;strokeWidth=3;strokeColor=#FF2403;" edge="1" parent="1">
          <mxGeometry width="50" height="50" relative="1" as="geometry">
            <mxPoint x="199" y="520" as="sourcePoint" />
            <mxPoint x="239" y="480" as="targetPoint" />
          </mxGeometry>
        </mxCell>
        <mxCell id="GPQAzj5ePq1C3IQFevj--115" value="" style="endArrow=none;html=1;rounded=0;strokeWidth=1;strokeColor=#000000;" edge="1" parent="1">
          <mxGeometry width="50" height="50" relative="1" as="geometry">
            <mxPoint x="239" y="400" as="sourcePoint" />
            <mxPoint x="199" y="360" as="targetPoint" />
          </mxGeometry>
        </mxCell>
        <mxCell id="GPQAzj5ePq1C3IQFevj--116" value="" style="endArrow=none;html=1;rounded=0;strokeWidth=3;strokeColor=#FF2403;" edge="1" parent="1">
          <mxGeometry width="50" height="50" relative="1" as="geometry">
            <mxPoint x="359" y="520" as="sourcePoint" />
            <mxPoint x="319" y="480" as="targetPoint" />
          </mxGeometry>
        </mxCell>
        <mxCell id="GPQAzj5ePq1C3IQFevj--117" value="" style="endArrow=oval;html=1;rounded=0;startArrow=oval;startFill=1;endFill=1;strokeWidth=1;strokeColor=#000000;" edge="1" parent="1">
          <mxGeometry width="50" height="50" relative="1" as="geometry">
            <mxPoint x="601" y="360" as="sourcePoint" />
            <mxPoint x="761" y="360" as="targetPoint" />
          </mxGeometry>
        </mxCell>
        <mxCell id="GPQAzj5ePq1C3IQFevj--118" value="" style="endArrow=none;html=1;rounded=0;strokeWidth=3;strokeColor=#FF2403;" edge="1" parent="1">
          <mxGeometry width="50" height="50" relative="1" as="geometry">
            <mxPoint x="601" y="520" as="sourcePoint" />
            <mxPoint x="601" y="360" as="targetPoint" />
          </mxGeometry>
        </mxCell>
        <mxCell id="GPQAzj5ePq1C3IQFevj--119" value="" style="endArrow=none;html=1;rounded=0;strokeWidth=3;strokeColor=#FF2403;" edge="1" parent="1">
          <mxGeometry width="50" height="50" relative="1" as="geometry">
            <mxPoint x="761" y="520" as="sourcePoint" />
            <mxPoint x="761" y="360" as="targetPoint" />
          </mxGeometry>
        </mxCell>
        <mxCell id="GPQAzj5ePq1C3IQFevj--120" value="" style="endArrow=oval;html=1;rounded=0;startArrow=oval;startFill=1;endFill=1;strokeWidth=1;strokeColor=#000000;" edge="1" parent="1">
          <mxGeometry width="50" height="50" relative="1" as="geometry">
            <mxPoint x="601" y="520" as="sourcePoint" />
            <mxPoint x="761" y="520" as="targetPoint" />
          </mxGeometry>
        </mxCell>
        <mxCell id="GPQAzj5ePq1C3IQFevj--121" value="" style="endArrow=none;html=1;rounded=0;strokeWidth=3;strokeColor=#FF2403;" edge="1" parent="1">
          <mxGeometry width="50" height="50" relative="1" as="geometry">
            <mxPoint x="641" y="400" as="sourcePoint" />
            <mxPoint x="721" y="400" as="targetPoint" />
          </mxGeometry>
        </mxCell>
        <mxCell id="GPQAzj5ePq1C3IQFevj--122" value="" style="endArrow=none;html=1;rounded=0;strokeWidth=3;strokeColor=#FF2403;" edge="1" parent="1">
          <mxGeometry width="50" height="50" relative="1" as="geometry">
            <mxPoint x="641" y="480" as="sourcePoint" />
            <mxPoint x="721" y="480" as="targetPoint" />
          </mxGeometry>
        </mxCell>
        <mxCell id="GPQAzj5ePq1C3IQFevj--123" value="" style="endArrow=oval;html=1;rounded=0;startArrow=oval;startFill=1;endFill=1;strokeWidth=1;strokeColor=#000000;" edge="1" parent="1">
          <mxGeometry width="50" height="50" relative="1" as="geometry">
            <mxPoint x="641" y="480" as="sourcePoint" />
            <mxPoint x="641" y="400" as="targetPoint" />
          </mxGeometry>
        </mxCell>
        <mxCell id="GPQAzj5ePq1C3IQFevj--124" value="" style="endArrow=oval;html=1;rounded=0;endFill=1;startArrow=oval;startFill=1;strokeWidth=1;strokeColor=#000000;" edge="1" parent="1">
          <mxGeometry width="50" height="50" relative="1" as="geometry">
            <mxPoint x="721" y="480" as="sourcePoint" />
            <mxPoint x="721" y="400" as="targetPoint" />
          </mxGeometry>
        </mxCell>
        <mxCell id="GPQAzj5ePq1C3IQFevj--125" value="" style="endArrow=none;html=1;rounded=0;strokeWidth=3;strokeColor=#FF2403;" edge="1" parent="1">
          <mxGeometry width="50" height="50" relative="1" as="geometry">
            <mxPoint x="721" y="400" as="sourcePoint" />
            <mxPoint x="761" y="360" as="targetPoint" />
          </mxGeometry>
        </mxCell>
        <mxCell id="GPQAzj5ePq1C3IQFevj--126" value="" style="endArrow=none;html=1;rounded=0;strokeWidth=3;strokeColor=#FF2403;" edge="1" parent="1">
          <mxGeometry width="50" height="50" relative="1" as="geometry">
            <mxPoint x="601" y="520" as="sourcePoint" />
            <mxPoint x="641" y="480" as="targetPoint" />
          </mxGeometry>
        </mxCell>
        <mxCell id="GPQAzj5ePq1C3IQFevj--127" value="" style="endArrow=none;html=1;rounded=0;strokeWidth=3;strokeColor=#FF2403;" edge="1" parent="1">
          <mxGeometry width="50" height="50" relative="1" as="geometry">
            <mxPoint x="641" y="400" as="sourcePoint" />
            <mxPoint x="601" y="360" as="targetPoint" />
          </mxGeometry>
        </mxCell>
        <mxCell id="GPQAzj5ePq1C3IQFevj--128" value="" style="endArrow=none;html=1;rounded=0;strokeWidth=3;strokeColor=#FF2403;" edge="1" parent="1">
          <mxGeometry width="50" height="50" relative="1" as="geometry">
            <mxPoint x="761" y="520" as="sourcePoint" />
            <mxPoint x="721" y="480" as="targetPoint" />
          </mxGeometry>
        </mxCell>
        <mxCell id="GPQAzj5ePq1C3IQFevj--129" value="&lt;span style=&quot;font-size: 16px&quot;&gt;A&lt;/span&gt;&lt;span style=&quot;color: rgba(0 , 0 , 0 , 0) ; font-family: monospace ; font-size: 0px&quot;&gt;%3CmxGraphModel%3E%3Croot%3E%3CmxCell%20id%3D%220%22%2F%3E%3CmxCell%20id%3D%221%22%20parent%3D%220%22%2F%3E%3CmxCell%20id%3D%222%22%20value%3D%22%22%20style%3D%22endArrow%3Doval%3Bhtml%3D1%3Brounded%3D0%3BstartArrow%3Doval%3BstartFill%3D1%3BendFill%3D1%3BstrokeWidth%3D3%3BstrokeColor%3D%23FF2403%3B%22%20edge%3D%221%22%20parent%3D%221%22%3E%3CmxGeometry%20width%3D%2250%22%20height%3D%2250%22%20relative%3D%221%22%20as%3D%22geometry%22%3E%3CmxPoint%20x%3D%22199%22%20y%3D%22360%22%20as%3D%22sourcePoint%22%2F%3E%3CmxPoint%20x%3D%22359%22%20y%3D%22360%22%20as%3D%22targetPoint%22%2F%3E%3C%2FmxGeometry%3E%3C%2FmxCell%3E%3CmxCell%20id%3D%223%22%20value%3D%22%22%20style%3D%22endArrow%3Dnone%3Bhtml%3D1%3Brounded%3D0%3B%22%20edge%3D%221%22%20parent%3D%221%22%3E%3CmxGeometry%20width%3D%2250%22%20height%3D%2250%22%20relative%3D%221%22%20as%3D%22geometry%22%3E%3CmxPoint%20x%3D%22199%22%20y%3D%22520%22%20as%3D%22sourcePoint%22%2F%3E%3CmxPoint%20x%3D%22199%22%20y%3D%22360%22%20as%3D%22targetPoint%22%2F%3E%3C%2FmxGeometry%3E%3C%2FmxCell%3E%3CmxCell%20id%3D%224%22%20value%3D%22%22%20style%3D%22endArrow%3Dnone%3Bhtml%3D1%3Brounded%3D0%3BstrokeWidth%3D1%3BstrokeColor%3D%23000000%3B%22%20edge%3D%221%22%20parent%3D%221%22%3E%3CmxGeometry%20width%3D%2250%22%20height%3D%2250%22%20relative%3D%221%22%20as%3D%22geometry%22%3E%3CmxPoint%20x%3D%22359%22%20y%3D%22520%22%20as%3D%22sourcePoint%22%2F%3E%3CmxPoint%20x%3D%22359%22%20y%3D%22360%22%20as%3D%22targetPoint%22%2F%3E%3C%2FmxGeometry%3E%3C%2FmxCell%3E%3CmxCell%20id%3D%225%22%20value%3D%22%22%20style%3D%22endArrow%3Doval%3Bhtml%3D1%3Brounded%3D0%3BstartArrow%3Doval%3BstartFill%3D1%3BendFill%3D1%3BstrokeWidth%3D3%3BstrokeColor%3D%23FF2403%3B%22%20edge%3D%221%22%20parent%3D%221%22%3E%3CmxGeometry%20width%3D%2250%22%20height%3D%2250%22%20relative%3D%221%22%20as%3D%22geometry%22%3E%3CmxPoint%20x%3D%22199%22%20y%3D%22520%22%20as%3D%22sourcePoint%22%2F%3E%3CmxPoint%20x%3D%22359%22%20y%3D%22520%22%20as%3D%22targetPoint%22%2F%3E%3C%2FmxGeometry%3E%3C%2FmxCell%3E%3CmxCell%20id%3D%226%22%20value%3D%22%22%20style%3D%22endArrow%3Dnone%3Bhtml%3D1%3Brounded%3D0%3BstrokeWidth%3D1%3BstrokeColor%3D%23000000%3B%22%20edge%3D%221%22%20parent%3D%221%22%3E%3CmxGeometry%20width%3D%2250%22%20height%3D%2250%22%20relative%3D%221%22%20as%3D%22geometry%22%3E%3CmxPoint%20x%3D%22239%22%20y%3D%22400%22%20as%3D%22sourcePoint%22%2F%3E%3CmxPoint%20x%3D%22319%22%20y%3D%22400%22%20as%3D%22targetPoint%22%2F%3E%3C%2FmxGeometry%3E%3C%2FmxCell%3E%3CmxCell%20id%3D%227%22%20value%3D%22%22%20style%3D%22endArrow%3Dnone%3Bhtml%3D1%3Brounded%3D0%3BstrokeWidth%3D1%3BstrokeColor%3D%23000000%3B%22%20edge%3D%221%22%20parent%3D%221%22%3E%3CmxGeometry%20width%3D%2250%22%20height%3D%2250%22%20relative%3D%221%22%20as%3D%22geometry%22%3E%3CmxPoint%20x%3D%22239%22%20y%3D%22480%22%20as%3D%22sourcePoint%22%2F%3E%3CmxPoint%20x%3D%22319%22%20y%3D%22480%22%20as%3D%22targetPoint%22%2F%3E%3C%2FmxGeometry%3E%3C%2FmxCell%3E%3CmxCell%20id%3D%228%22%20value%3D%22%22%20style%3D%22endArrow%3Doval%3Bhtml%3D1%3Brounded%3D0%3BstartArrow%3Doval%3BstartFill%3D1%3BendFill%3D1%3BstrokeWidth%3D3%3BstrokeColor%3D%23FF2403%3B%22%20edge%3D%221%22%20parent%3D%221%22%3E%3CmxGeometry%20width%3D%2250%22%20height%3D%2250%22%20relative%3D%221%22%20as%3D%22geometry%22%3E%3CmxPoint%20x%3D%22239%22%20y%3D%22480%22%20as%3D%22sourcePoint%22%2F%3E%3CmxPoint%20x%3D%22239%22%20y%3D%22400%22%20as%3D%22targetPoint%22%2F%3E%3C%2FmxGeometry%3E%3C%2FmxCell%3E%3CmxCell%20id%3D%229%22%20value%3D%22%22%20style%3D%22endArrow%3Doval%3Bhtml%3D1%3Brounded%3D0%3BendFill%3D1%3BstartArrow%3Doval%3BstartFill%3D1%3BstrokeWidth%3D3%3BstrokeColor%3D%23FF2403%3B%22%20edge%3D%221%22%20parent%3D%221%22%3E%3CmxGeometry%20width%3D%2250%22%20height%3D%2250%22%20relative%3D%221%22%20as%3D%22geometry%22%3E%3CmxPoint%20x%3D%22319%22%20y%3D%22480%22%20as%3D%22sourcePoint%22%2F%3E%3CmxPoint%20x%3D%22319%22%20y%3D%22400%22%20as%3D%22targetPoint%22%2F%3E%3C%2FmxGeometry%3E%3C%2FmxCell%3E%3CmxCell%20id%3D%2210%22%20value%3D%22%22%20style%3D%22endArrow%3Dnone%3Bhtml%3D1%3Brounded%3D0%3BstrokeWidth%3D3%3BstrokeColor%3D%23FF2403%3B%22%20edge%3D%221%22%20parent%3D%221%22%3E%3CmxGeometry%20width%3D%2250%22%20height%3D%2250%22%20relative%3D%221%22%20as%3D%22geometry%22%3E%3CmxPoint%20x%3D%22319%22%20y%3D%22400%22%20as%3D%22sourcePoint%22%2F%3E%3CmxPoint%20x%3D%22359%22%20y%3D%22360%22%20as%3D%22targetPoint%22%2F%3E%3C%2FmxGeometry%3E%3C%2FmxCell%3E%3CmxCell%20id%3D%2211%22%20value%3D%22%22%20style%3D%22endArrow%3Dnone%3Bhtml%3D1%3Brounded%3D0%3BstrokeWidth%3D3%3BstrokeColor%3D%23FF2403%3B%22%20edge%3D%221%22%20parent%3D%221%22%3E%3CmxGeometry%20width%3D%2250%22%20height%3D%2250%22%20relative%3D%221%22%20as%3D%22geometry%22%3E%3CmxPoint%20x%3D%22199%22%20y%3D%22520%22%20as%3D%22sourcePoint%22%2F%3E%3CmxPoint%20x%3D%22239%22%20y%3D%22480%22%20as%3D%22targetPoint%22%2F%3E%3C%2FmxGeometry%3E%3C%2FmxCell%3E%3CmxCell%20id%3D%2212%22%20value%3D%22%22%20style%3D%22endArrow%3Dnone%3Bhtml%3D1%3Brounded%3D0%3BstrokeWidth%3D3%3BstrokeColor%3D%23FF2403%3B%22%20edge%3D%221%22%20parent%3D%221%22%3E%3CmxGeometry%20width%3D%2250%22%20height%3D%2250%22%20relative%3D%221%22%20as%3D%22geometry%22%3E%3CmxPoint%20x%3D%22239%22%20y%3D%22400%22%20as%3D%22sourcePoint%22%2F%3E%3CmxPoint%20x%3D%22199%22%20y%3D%22360%22%20as%3D%22targetPoint%22%2F%3E%3C%2FmxGeometry%3E%3C%2FmxCell%3E%3CmxCell%20id%3D%2213%22%20value%3D%22%22%20style%3D%22endArrow%3Dnone%3Bhtml%3D1%3Brounded%3D0%3BstrokeWidth%3D3%3BstrokeColor%3D%23FF2403%3B%22%20edge%3D%221%22%20parent%3D%221%22%3E%3CmxGeometry%20width%3D%2250%22%20height%3D%2250%22%20relative%3D%221%22%20as%3D%22geometry%22%3E%3CmxPoint%20x%3D%22359%22%20y%3D%22520%22%20as%3D%22sourcePoint%22%2F%3E%3CmxPoint%20x%3D%22319%22%20y%3D%22480%22%20as%3D%22targetPoint%22%2F%3E%3C%2FmxGeometry%3E%3C%2FmxCell%3E%3C%2Froot%3E%3C%2FmxGraphModel%3E&lt;/span&gt;" style="text;html=1;strokeColor=none;fillColor=none;align=center;verticalAlign=middle;whiteSpace=wrap;rounded=0;" vertex="1" parent="1">
          <mxGeometry x="450" y="250" width="60" height="30" as="geometry" />
        </mxCell>
        <mxCell id="GPQAzj5ePq1C3IQFevj--142" value="B" style="text;html=1;strokeColor=none;fillColor=none;align=center;verticalAlign=middle;whiteSpace=wrap;rounded=0;fontSize=16;" vertex="1" parent="1">
          <mxGeometry x="650" y="250" width="60" height="30" as="geometry" />
        </mxCell>
        <mxCell id="GPQAzj5ePq1C3IQFevj--143" value="C" style="text;html=1;strokeColor=none;fillColor=none;align=center;verticalAlign=middle;whiteSpace=wrap;rounded=0;fontSize=16;" vertex="1" parent="1">
          <mxGeometry x="850" y="250" width="60" height="30" as="geometry" />
        </mxCell>
        <mxCell id="GPQAzj5ePq1C3IQFevj--144" value="D" style="text;html=1;strokeColor=none;fillColor=none;align=center;verticalAlign=middle;whiteSpace=wrap;rounded=0;fontSize=16;" vertex="1" parent="1">
          <mxGeometry x="250" y="450" width="60" height="30" as="geometry" />
        </mxCell>
        <mxCell id="GPQAzj5ePq1C3IQFevj--145" value="E" style="text;html=1;strokeColor=none;fillColor=none;align=center;verticalAlign=middle;whiteSpace=wrap;rounded=0;fontSize=16;" vertex="1" parent="1">
          <mxGeometry x="450" y="450" width="60" height="30" as="geometry" />
        </mxCell>
        <mxCell id="GPQAzj5ePq1C3IQFevj--146" value="F" style="text;html=1;strokeColor=none;fillColor=none;align=center;verticalAlign=middle;whiteSpace=wrap;rounded=0;fontSize=16;" vertex="1" parent="1">
          <mxGeometry x="650" y="450" width="60" height="30" as="geometry" />
        </mxCell>
      </root>
    </mxGraphModel>
  </diagram>
</mxfile>
